<?xml version="1.0" standalone="no"?>
<!DOCTYPE svg PUBLIC "-//W3C//DTD SVG 20010904//EN"
 "http://www.w3.org/TR/2001/REC-SVG-20010904/DTD/svg10.dtd">
<svg version="1.0" xmlns="http://www.w3.org/2000/svg"
 width="405.000000pt" height="402.000000pt" viewBox="0 0 405.000000 402.000000"
 preserveAspectRatio="xMidYMid meet">

<g transform="translate(0.000000,402.000000) scale(0.100000,-0.100000)"
fill="#000000" stroke="none">
<path d="M1999 2854 c-163 -29 -255 -84 -371 -221 -36 -43 -99 -110 -140 -149
l-73 -72 -300 -5 c-467 -8 -468 -8 -496 -22 -45 -24 -63 -63 -62 -135 2 -134
22 -386 33 -425 30 -100 81 -162 156 -191 26 -10 68 -38 93 -64 66 -65 115
-79 356 -95 272 -18 338 -45 496 -205 109 -109 148 -186 185 -355 41 -188 22
-538 -41 -788 l-7 -27 108 0 c104 1 272 13 361 26 39 6 43 9 67 63 82 182 92
447 26 691 l-11 42 -24 -49 c-14 -26 -36 -61 -49 -78 l-24 -30 -7 60 c-9 86
-48 207 -86 270 -18 30 -37 55 -41 55 -4 0 -8 -24 -8 -54 0 -30 -5 -67 -11
-82 -10 -28 -10 -28 -44 41 -50 102 -119 180 -252 286 -248 196 -322 220 -728
237 -132 6 -211 14 -233 23 -33 14 -31 14 55 16 48 1 144 9 213 18 68 8 176
15 240 15 100 0 126 -4 200 -29 47 -16 86 -28 88 -26 10 9 -132 89 -192 107
-77 25 -156 27 -521 17 -200 -5 -218 1 -267 87 -29 52 -70 196 -83 292 l-7 52
39 0 c56 1 119 32 139 72 10 18 17 57 18 90 l1 58 338 0 c294 0 342 2 370 16
18 9 71 54 120 100 95 90 200 151 312 179 75 19 208 19 306 0 87 -16 117 -28
176 -67 23 -15 44 -28 47 -28 12 0 5 92 -9 126 l-14 35 68 -36 c147 -78 267
-209 348 -383 20 -42 38 -78 39 -80 14 -20 94 84 94 121 0 36 19 13 58 -71
125 -269 141 -499 52 -756 -11 -33 -18 -61 -16 -63 9 -10 171 177 222 258 66
104 61 106 92 -42 36 -167 45 -278 39 -487 -5 -206 -23 -315 -77 -467 -23 -66
-23 -67 65 39 69 82 178 247 239 359 57 104 136 298 136 332 0 47 -131 389
-228 597 -141 300 -318 544 -468 643 -108 72 -314 128 -590 160 -157 18 -412
18 -515 -1z"/>
<path d="M2480 2560 c0 -24 -103 -284 -159 -402 -94 -197 -131 -352 -131 -547
0 -184 36 -297 120 -381 103 -103 282 -145 444 -104 74 19 190 74 237 114 l34
28 -70 -19 c-54 -16 -93 -19 -171 -17 -90 3 -107 7 -167 36 -84 42 -131 89
-157 159 -20 55 -26 160 -11 213 7 25 7 25 19 -9 16 -47 57 -98 92 -116 42
-22 42 -20 10 33 -63 102 -77 260 -36 412 65 237 76 287 76 336 0 80 -18 149
-53 201 -34 49 -77 85 -77 63z"/>
<path d="M1927 2413 c-135 -67 -141 -79 -63 -130 62 -42 130 -46 172 -9 28 23
31 41 22 111 -3 16 4 21 34 23 20 2 50 -4 66 -12 29 -15 30 -15 25 4 -3 11
-19 31 -35 45 -47 40 -88 34 -221 -32z m88 -39 c35 -36 -16 -100 -74 -90 -33
5 -71 31 -71 48 0 10 97 58 117 58 6 0 19 -7 28 -16z"/>
<path d="M2985 2130 c2 -19 9 -107 15 -194 21 -293 -13 -457 -124 -600 l-30
-38 33 17 c48 25 116 96 145 152 48 95 61 158 59 293 -1 141 -22 242 -73 345
-27 53 -30 56 -25 25z"/>
</g>
</svg>
